<?xml version="1.0" encoding="UTF-8"?>
<svg version="1.1" xmlns="http://www.w3.org/2000/svg" width="1024" height="1024">
<path d="M0 0 C1.57736768 -0.00303015 3.15473389 -0.0069239 4.73209757 -0.01159257 C9.0141826 -0.0217706 13.29618296 -0.01971712 17.57827461 -0.01541197 C22.21720561 -0.01292592 26.8561172 -0.02198215 31.49504089 -0.02944946 C40.56400967 -0.04214768 49.63294876 -0.04399618 58.70192493 -0.0416492 C66.08165606 -0.03986003 73.46137825 -0.04162848 80.84110832 -0.04587364 C82.42170434 -0.04676643 82.42170434 -0.04676643 84.03423158 -0.04767724 C86.17551896 -0.04888911 88.31680633 -0.05010325 90.4580937 -0.05131962 C110.50509875 -0.06217685 130.55208696 -0.06004157 150.59909295 -0.05393478 C168.89178956 -0.04876996 187.18443285 -0.06001283 205.47711892 -0.07903299 C224.30830467 -0.09846128 243.13946527 -0.1066585 261.9706611 -0.10290974 C272.52347884 -0.10100491 283.07625124 -0.10341464 293.62906075 -0.11762428 C302.61530868 -0.12960305 311.60148338 -0.13087097 320.58773244 -0.11883412 C325.16189829 -0.11299001 329.73593065 -0.11172013 334.3100872 -0.12383652 C376.95651751 -0.22877809 416.72517054 3.86483015 450.57701111 32.26069641 C451.36333923 32.91296204 452.14966736 33.56522766 452.95982361 34.23725891 C477.15032456 55.09113904 491.52790346 84.83138208 495.57701111 116.26069641 C495.70921247 117.25494128 495.70921247 117.25494128 495.84408456 118.26927191 C496.78735945 126.37707256 496.71946994 134.48582357 496.71072388 142.63482666 C496.71259432 144.29221112 496.71489595 145.94959515 496.7175892 147.60697848 C496.72368505 152.14254263 496.72357622 156.67808828 496.72239482 161.21365559 C496.72219025 166.11300572 496.72771508 171.01235 496.73245239 175.91169739 C496.74074798 185.50465862 496.74350676 195.0976137 496.74406477 204.69057821 C496.74454057 212.49338159 496.7465985 220.29618294 496.7497654 228.09898567 C496.75856996 250.24468157 496.76318523 272.39037262 496.76243492 294.53607028 C496.76237499 296.32574044 496.76237499 296.32574044 496.76231384 298.15156555 C496.76225252 299.94343381 496.76225252 299.94343381 496.76218996 301.77150143 C496.76178383 321.11558526 496.77134568 340.4596496 496.78545221 359.8037278 C496.79983833 379.68896573 496.80672112 399.57419417 496.80585843 419.45943743 C496.80552718 430.61414034 496.80824282 441.76882283 496.81903648 452.92352104 C496.82817107 462.42426578 496.83029263 471.92498083 496.82352706 481.42572808 C496.82027639 486.26653413 496.82015218 491.10728334 496.82888031 495.94808388 C496.83681131 500.3928127 496.83524748 504.83744024 496.82659618 509.28216679 C496.82507554 510.87708143 496.82682205 512.47200389 496.83245625 514.06690931 C496.96510268 554.33226571 485.9765014 590.52561359 457.45201111 619.88569641 C445.97728977 631.27408972 432.34130891 639.81529399 417.57701111 646.26069641 C416.93973083 646.54138977 416.30245056 646.82208313 415.64585876 647.11128235 C404.68369047 651.83438861 393.35281242 654.43775619 381.57701111 656.26069641 C380.53351942 656.43047312 379.49002773 656.60024982 378.41491508 656.77517128 C371.54153221 657.61840207 364.59409644 657.41274558 357.68031311 657.41459656 C356.05026708 657.41861589 354.42022204 657.42305489 352.79017818 657.42787611 C348.32062326 657.43979584 343.85107912 657.44547939 339.38151145 657.45005727 C334.55629002 657.4560312 329.73108133 657.46763683 324.90586853 657.47834778 C313.25454581 657.50283565 301.60321889 657.51749611 289.95187837 657.53040785 C286.65681275 657.53412321 283.36174754 657.53809618 280.06668234 657.54216051 C259.57406186 657.56740671 239.08144065 657.58944468 218.58880806 657.60188866 C213.84512962 657.60481803 209.10145121 657.60777973 204.35777283 657.61079407 C203.17885223 657.61154012 201.99993164 657.61228617 200.78528617 657.61305483 C181.72059409 657.62568742 162.65599571 657.65888394 143.59134735 657.7005959 C123.98525279 657.74313802 104.37920602 657.76659804 84.77306545 657.77180922 C73.77846224 657.77521005 62.78400531 657.7868071 51.78944778 657.81991196 C42.41837425 657.84808318 33.047477 657.85883774 23.67636444 657.8477165 C18.9054691 657.84257264 14.13494188 657.84513367 9.36410141 657.87018204 C-35.26165296 658.09168696 -73.01106614 650.73734595 -106.42298889 619.26069641 C-107.08685608 618.66128235 -107.75072327 618.06186829 -108.43470764 617.44429016 C-131.51831361 595.7653661 -143.3368077 563.30844177 -145.42298889 532.26069641 C-145.56837029 526.77131697 -145.56685374 521.28365223 -145.56343079 515.79286194 C-145.56601813 514.12524098 -145.56903231 512.45762065 -145.57243419 510.79000115 C-145.58046443 506.22602606 -145.58229153 501.66206673 -145.58303165 497.0980854 C-145.58488922 492.16800138 -145.59244017 487.2379254 -145.59916687 482.30784607 C-145.61272346 471.53457849 -145.61877103 460.76131465 -145.62317753 449.98803997 C-145.62594505 443.25291808 -145.63018338 436.51779762 -145.6346817 429.7826767 C-145.64687196 411.11237554 -145.65717105 392.44207552 -145.66055679 373.77177048 C-145.66077636 372.57780589 -145.66099593 371.38384129 -145.66122214 370.15369596 C-145.66144042 368.95696818 -145.6616587 367.7602404 -145.66188359 366.52724814 C-145.66232705 364.10246007 -145.66277361 361.67767199 -145.66322327 359.25288391 C-145.6634447 358.05012016 -145.66366613 356.84735641 -145.66389427 355.60814527 C-145.66783824 336.13998191 -145.68528114 316.67185607 -145.70858279 297.20370719 C-145.73234722 277.18624322 -145.74476099 257.16879804 -145.74592471 237.15131974 C-145.74683873 225.92440893 -145.7525217 214.697547 -145.77074432 203.47064972 C-145.78621432 193.90630171 -145.79122542 184.34201767 -145.78300622 174.77765951 C-145.77912372 169.9060753 -145.77991053 165.03461964 -145.79406357 160.16305161 C-145.92155335 113.53186259 -140.31665298 72.67293744 -106.22377014 37.92866516 C-77.73179615 10.06448043 -38.94748654 -0.10822185 0 0 Z " fill="#212C42" transform="translate(336.42298889160156,182.7393035888672)"/>
<path d="M0 0 C5.00115544 0.07834708 7.14730603 1.18748422 10.625 4.75 C12.06775473 6.39122893 13.50552262 8.0368594 14.9375 9.6875 C16.16433042 10.7970036 17.41394167 11.88196209 18.6875 12.9375 C22.46482389 16.17088925 25.94432726 19.654502 29.4375 23.1875 C33.4893815 27.28552392 37.58354475 31.21877586 41.98046875 34.94921875 C44.40202989 37.10010639 46.66124795 39.38361515 48.9375 41.6875 C51.77239999 44.55676241 54.60870659 47.33236711 57.6875 49.9375 C61.64727302 53.31779404 65.27818103 56.9897226 68.9375 60.6875 C74.28214869 66.10245267 74.28214869 66.10245267 79.9375 71.1875 C84.4483573 74.99839669 88.53642706 79.23482029 92.6640625 83.45117188 C95.57768765 86.40803576 98.53233669 89.2385823 101.6875 91.9375 C107.56448088 97.01050084 112.92730604 102.6200565 118.37402344 108.14453125 C123.46948348 113.30607575 128.59084964 118.36093554 134.10546875 123.078125 C137.81107574 126.33337037 141.20230937 129.91269314 144.6484375 133.4375 C147.60944214 136.43869927 150.61429002 139.31393935 153.8125 142.0625 C159.24412757 146.75107255 164.19924902 151.90252119 169.2265625 157.015625 C172.70390264 160.528814 176.18752899 163.96475264 179.9375 167.1875 C185.33427457 171.82552012 190.24104364 176.94502903 195.2265625 182.015625 C198.70390264 185.528814 202.18752899 188.96475264 205.9375 192.1875 C211.33427457 196.82552012 216.24104364 201.94502903 221.2265625 207.015625 C224.62164635 210.44570972 228.01123539 213.80843621 231.6875 216.9375 C238.38831156 222.69621726 244.45897729 229.15581223 250.66503906 235.43554688 C258.09308868 243.03191315 258.09308868 243.03191315 265.9375 250.1875 C272.57334473 255.83561941 278.54466179 262.24251391 284.66503906 268.43554688 C286.35787988 270.14667307 288.05387537 271.8546297 289.75 273.5625 C290.25233154 274.07312988 290.75466309 274.58375977 291.2722168 275.10986328 C294.01327363 277.86924448 296.8256412 280.48522897 299.7734375 283.0234375 C304.31260497 286.95483002 308.52848728 291.17018345 312.75 295.4375 C313.96973511 296.66291504 313.96973511 296.66291504 315.21411133 297.91308594 C318.6592734 301.37445042 322.0984029 304.84178591 325.53808594 308.30859375 C328.06496508 310.85365188 330.59491315 313.39563131 333.125 315.9375 C333.88981689 316.71061523 334.65463379 317.48373047 335.44262695 318.28027344 C339.53126827 322.38730579 343.71293328 326.29810811 348.10418701 330.07904053 C350.77795235 332.42487194 353.25788936 334.91404782 355.7578125 337.4453125 C356.51854568 338.21172562 356.51854568 338.21172562 357.29464722 338.99362183 C358.88644952 340.59744398 360.47490182 342.20451688 362.0625 343.8125 C364.16627035 345.94310252 366.27350338 348.07019481 368.3828125 350.1953125 C369.30594238 351.13004395 370.22907227 352.06477539 371.18017578 353.02783203 C373.97143372 355.72023189 376.95821369 358.2047614 379.9375 360.6875 C380.2675 252.7775 380.5975 144.8675 380.9375 33.6875 C365.7575 33.6875 350.5775 33.6875 334.9375 33.6875 C334.94797363 39.88184814 334.95844727 46.07619629 334.96923828 52.45825195 C335.00231334 72.87819647 335.02454546 93.29814201 335.04112434 113.71810627 C335.05144717 126.10399552 335.06552671 138.48985943 335.08837891 150.87573242 C335.108282 161.66831468 335.12120911 172.4608786 335.12567699 183.25347871 C335.1282896 188.97072411 335.13445121 194.68791703 335.14896011 200.40514565 C335.16249538 205.78207707 335.16673088 211.1589342 335.16371536 216.53588104 C335.16426735 218.51323284 335.16826885 220.49058702 335.17591095 222.46792412 C335.18580877 225.16008975 335.18348785 227.85197197 335.17800903 230.54414368 C335.18674756 231.72750249 335.18674756 231.72750249 335.19566262 232.93476754 C335.1746799 236.7290018 335.09556487 238.4504027 332.9375 241.6875 C329.65234375 242.19140625 329.65234375 242.19140625 325.9375 241.6875 C323.12890625 239.52734375 323.12890625 239.52734375 320.5 236.625 C317.51208425 233.37881434 314.57926662 230.32373697 311.22241211 227.45922852 C307.11367679 223.88927944 303.25976232 220.12232502 299.4375 216.25 C298.4175293 215.22434937 298.4175293 215.22434937 297.37695312 214.17797852 C294.50524857 211.29012227 291.63961562 208.39626925 288.7734375 205.50292969 C286.66357213 203.37484275 284.55060355 201.24987083 282.4375 199.125 C281.80392578 198.48312744 281.17035156 197.84125488 280.51757812 197.17993164 C277.44760733 194.0934513 274.33313543 191.12357118 271.03320312 188.28320312 C266.4353435 184.31184426 262.17789867 180.03545779 257.90625 175.71875 C256.65322083 174.46004089 256.65322083 174.46004089 255.37487793 173.17590332 C251.83413871 169.6189548 248.29942676 166.0560388 244.76416016 162.49365234 C242.1677794 159.87909836 239.56833434 157.26761816 236.96875 154.65625 C236.18205933 153.86126099 235.39536865 153.06627197 234.58483887 152.24719238 C230.4801463 148.12452658 226.28794863 144.19923178 221.8795166 140.40466309 C218.51280879 137.42776455 215.37529563 134.22775928 212.21875 131.03125 C211.16548523 129.9723053 211.16548523 129.9723053 210.09094238 128.89196777 C207.12366234 125.90852625 204.16244637 122.9190929 201.20068359 119.93017578 C199.02131535 117.73259421 196.83885053 115.53812062 194.65625 113.34375 C194.000802 112.68000366 193.345354 112.01625732 192.67004395 111.33239746 C188.87048439 107.51304979 184.94953257 103.91674333 180.87194824 100.39709473 C177.81494043 97.69542284 174.95651465 94.8108424 172.09375 91.90625 C171.48035767 91.28907104 170.86696533 90.67189209 170.23498535 90.03601074 C167.65000482 87.43491211 165.07112178 84.82779986 162.49169922 82.22119141 C153.40483598 73.00191761 153.40483598 73.00191761 143.80273438 64.33007812 C138.95611237 60.06200576 134.53158541 55.31519834 130.00390625 50.71484375 C126.40813773 47.08410828 122.81603044 43.51692643 118.9375 40.1875 C113.30937243 35.35617614 108.20313402 29.99752622 103.00390625 24.71484375 C97.36456543 19.02066331 91.54247677 13.67699293 85.375 8.5625 C83.9375 6.6875 83.9375 6.6875 84.125 4 C84.9375 1.6875 84.9375 1.6875 85.9375 0.6875 C88.96984616 0.54894508 91.9777078 0.4742681 95.01171875 0.44921875 C95.92830765 0.441147 96.84489655 0.43307526 97.78926086 0.42475891 C99.73538307 0.41089754 101.68152981 0.40018462 103.62768555 0.39233398 C106.59536452 0.37517139 109.56191514 0.3313102 112.52929688 0.28710938 C114.41926263 0.27697838 116.30923788 0.26846355 118.19921875 0.26171875 C119.08381271 0.24421066 119.96840668 0.22670258 120.87980652 0.20866394 C130.20900725 0.24126488 134.63705994 5.16048718 140.96810913 11.51716614 C141.85261749 12.41513412 142.73712585 13.31310211 143.6484375 14.23828125 C145.06516586 15.66295942 146.48189694 17.08763489 147.89878273 18.51215649 C149.87437835 20.50083595 151.84538059 22.49403698 153.81634521 24.48730469 C157.25520806 27.96418539 160.69880784 31.43635698 164.14614868 34.90483093 C165.97659448 36.74741223 167.80436162 38.59265975 169.6289978 40.44099426 C173.28794186 44.12835505 176.94261804 47.75708979 180.88720703 51.1394043 C185.57358435 55.16341618 189.8960703 59.53318648 194.24302673 63.91786194 C195.75562332 65.44343977 197.27151202 66.96568086 198.78820801 68.48718262 C202.55145801 72.26366982 206.30918668 76.04563511 210.06707764 79.82745361 C213.25485668 83.03509868 216.44477042 86.24059295 219.63743591 89.44337463 C221.11720556 90.92953689 222.59388565 92.41871996 224.07043457 93.90808105 C228.57719224 98.43111649 233.1299738 102.79590948 237.97644043 106.95129395 C241.80927541 110.34465915 245.36942949 114.01896237 248.96875 117.65625 C250.22177917 118.91495911 250.22177917 118.91495911 251.50012207 120.19909668 C255.04086129 123.7560452 258.57557324 127.3189612 262.11083984 130.88134766 C264.7072206 133.49590164 267.30666566 136.10738184 269.90625 138.71875 C270.69294067 139.51373901 271.47963135 140.30872803 272.29016113 141.12780762 C275.64502951 144.49736597 279.00262011 147.79358906 282.62695312 150.87304688 C289.09453645 156.41074779 294.95924547 162.63367764 300.9375 168.6875 C300.94108253 167.42521261 300.94108253 167.42521261 300.94473743 166.13742447 C301.00384007 145.67350547 301.07935967 125.20970471 301.17321491 104.74591446 C301.21820533 94.84982619 301.25761247 84.95377417 301.28393555 75.05761719 C301.30688937 66.4334293 301.340258 57.80935582 301.38620156 49.18525863 C301.41016915 44.61767225 301.42887471 40.05019943 301.43511391 35.48255157 C301.44114882 31.18482415 301.46109063 26.88738741 301.49177551 22.58976746 C301.50058138 21.01116197 301.50427306 19.43251853 301.50250816 17.85388947 C301.50086054 15.70045253 301.51750935 13.54790711 301.53877258 11.39459229 C301.54338155 10.18888706 301.54799051 8.98318184 301.55273914 7.74094009 C301.97442942 4.39443023 302.46884175 2.96944402 304.9375 0.6875 C306.92247009 0.19251537 306.92247009 0.19251537 309.22631836 0.19975281 C310.10117889 0.19280899 310.97603943 0.18586517 311.87741089 0.17871094 C313.31287766 0.19792603 313.31287766 0.19792603 314.77734375 0.2175293 C315.78733429 0.2153389 316.79732483 0.2131485 317.83792114 0.21089172 C321.18394471 0.208576 324.52909338 0.23486309 327.875 0.26171875 C330.19522828 0.26664058 332.51546052 0.26994081 334.83569336 0.27168274 C339.70146333 0.27933069 344.56693999 0.29991578 349.43261719 0.33081055 C355.67736939 0.37038581 361.92193053 0.38841841 368.16679382 0.39811993 C374.11122191 0.40808485 380.05560307 0.42798398 386 0.44921875 C387.70855667 0.45431237 387.70855667 0.45431237 389.45162964 0.4595089 C392.66702891 0.4710606 395.88230594 0.48957834 399.09765625 0.51049805 C400.53312302 0.5145314 400.53312302 0.5145314 401.99758911 0.51864624 C403.30987991 0.5293792 403.30987991 0.5293792 404.64868164 0.54032898 C405.40895157 0.54460246 406.1692215 0.54887594 406.95252991 0.55327892 C408.9375 0.6875 408.9375 0.6875 411.9375 1.6875 C414.41405432 5.40233148 414.18899625 7.262655 414.19197559 11.70126343 C414.19518207 12.42307336 414.19838855 13.14488329 414.20169219 13.88856626 C414.21004474 16.32601804 414.2040497 18.76322745 414.19819641 21.20068359 C414.2012147 22.95830129 414.20510255 24.71591768 414.20978898 26.47353172 C414.22011924 31.31805473 414.21787444 36.16250416 414.21360838 41.00703335 C414.21115026 46.22590888 414.22014386 51.44476628 414.22764587 56.66363525 C414.24042007 66.89321646 414.24218321 77.12277146 414.23984561 87.35235929 C414.23806546 95.66319287 414.23980556 103.97401846 414.24407005 112.28485107 C414.24466524 113.46588232 414.24526043 114.64691357 414.24587366 115.86373365 C414.24708535 118.26267386 414.24829949 120.66161406 414.24951603 123.06055427 C414.26040189 145.57668942 414.25822403 168.09280961 414.25213119 190.60894561 C414.24696009 211.22849991 414.2582207 231.84800699 414.27722941 252.46755195 C414.29657883 273.61810799 414.30486897 294.76864166 414.30110615 315.91920662 C414.29918983 327.80233437 414.30172356 339.68542192 414.31582069 351.56854248 C414.32769858 361.68367187 414.32917988 371.7987363 414.31703053 381.91386652 C414.31111671 387.07873087 414.31011107 392.2434762 414.32203293 397.40833282 C414.33280719 402.13072607 414.3298903 406.85289973 414.31577124 411.57528234 C414.31310081 413.28923188 414.31556346 415.00319816 414.32350711 416.71713138 C414.33351479 419.03626991 414.32527683 421.35463041 414.31223011 423.67373657 C414.31228513 424.96505808 414.31234014 426.25637959 414.31239682 427.58683205 C413.9375 430.6875 413.9375 430.6875 412.58204812 432.58679771 C409.77768012 434.46377184 408.2508973 434.3126693 404.9375 433.6875 C399.10860033 429.41455967 394.06757956 423.942166 389 418.8125 C387.91344116 417.72026123 387.91344116 417.72026123 386.80493164 416.60595703 C383.74207576 413.52693049 380.68527689 410.44191677 377.62792969 407.35742188 C375.37905883 405.09034542 373.12709762 402.82637034 370.875 400.5625 C370.19767822 399.87687988 369.52035645 399.19125977 368.82250977 398.48486328 C365.65065118 395.29699112 362.44349382 392.21578608 359.03320312 389.28320312 C354.27816575 385.17978627 349.88583496 380.74247367 345.46875 376.28125 C344.58900513 375.39771851 343.70926025 374.51418701 342.80285645 373.60388184 C339.54093055 370.3277768 336.28357436 367.0471502 333.02655029 363.76617432 C329.8226274 360.53919462 326.61480884 357.3161192 323.40625 354.09375 C322.57581177 353.25501343 321.74537354 352.41627686 320.88977051 351.55212402 C316.66919536 347.31399971 312.37181379 343.26153357 307.83728027 339.36242676 C304.63538598 336.53950113 301.65303784 333.50619232 298.65625 330.46875 C297.66957336 329.47639343 297.66957336 329.47639343 296.66296387 328.46398926 C293.88683442 325.67171856 291.11678463 322.87344584 288.34619141 320.07568359 C286.3058292 318.01709102 284.26235669 315.96162097 282.21875 313.90625 C281.60704956 313.28625122 280.99534912 312.66625244 280.3651123 312.02746582 C276.66034946 308.3021084 272.82216933 304.80642066 268.8470459 301.37219238 C266.02762335 298.88476347 263.38574445 296.24178602 260.75 293.5625 C259.9297937 292.73661377 259.9297937 292.73661377 259.09301758 291.89404297 C256.79475636 289.5797054 254.50262484 287.2593335 252.20996094 284.93945312 C244.79858714 277.3574862 244.79858714 277.3574862 236.96875 270.21875 C230.11808344 264.38778433 223.95721595 257.75870173 217.63720703 251.36669922 C208.99547083 242.62433467 208.99547083 242.62433467 199.86914062 234.39648438 C194.78166472 229.89543138 190.12406216 224.90719189 185.359375 220.0703125 C181.64532153 216.32208062 177.94466648 212.62336363 173.9375 209.1875 C168.07783045 204.16324519 162.77213192 198.56508088 157.359375 193.0703125 C153.01353917 188.68448431 148.61599221 184.47520818 143.9296875 180.45703125 C139.28063762 176.32758107 135.00599096 171.79128944 130.6484375 167.359375 C127.18137613 163.85657073 123.70945398 160.42986279 119.96875 157.21875 C114.33205369 152.37453971 109.21362862 147.00818928 104.00390625 141.71484375 C100.41843941 138.09451013 96.83808108 134.53642946 92.96875 131.21875 C87.1006264 126.18140761 81.78266638 120.57577496 76.359375 115.0703125 C72.64532153 111.32208062 68.94466648 107.62336363 64.9375 104.1875 C59.07783045 99.16324519 53.77213192 93.56508088 48.359375 88.0703125 C43.93247028 83.60266939 39.46677794 79.27006592 34.67773438 75.19067383 C31.93332725 72.82011902 29.40843138 70.34375123 26.9375 67.6875 C26.9375 67.0275 26.9375 66.3675 26.9375 65.6875 C26.2775 65.6875 25.6175 65.6875 24.9375 65.6875 C24.9375 185.4775 24.9375 305.2675 24.9375 428.6875 C40.7775 428.6875 56.6175 428.6875 72.9375 428.6875 C72.92702637 421.39736816 72.91655273 414.10723633 72.90576172 406.59619141 C72.87368723 383.2920337 72.85142602 359.98787729 72.83536934 336.68370352 C72.83286782 333.06615385 72.83027918 329.44860425 72.82763672 325.83105469 C72.8271121 325.11084115 72.82658748 324.39062761 72.82604696 323.64858942 C72.81733544 311.97461661 72.80156138 300.30066342 72.78319441 288.62670226 C72.76451609 276.65534246 72.75338767 264.68399296 72.74932301 252.71261919 C72.74682085 245.9854534 72.74078402 239.2583286 72.72603989 232.53117752 C72.71251869 226.20625607 72.70826623 219.88139777 72.71128464 213.55646324 C72.71073202 211.22876709 72.70672221 208.90106894 72.69908905 206.57338524 C72.68921323 203.40794487 72.69150403 200.24274639 72.69699097 197.07730103 C72.69116528 196.14540817 72.6853396 195.21351531 72.67933738 194.25338328 C72.68331948 193.40990285 72.68730158 192.56642242 72.69140434 191.69738197 C72.69026518 190.60036994 72.69026518 190.60036994 72.68910301 189.48119605 C72.9375 187.6875 72.9375 187.6875 74.9375 185.6875 C78.03515625 185.05859375 78.03515625 185.05859375 81.9375 185.6875 C85.1252822 188.0200049 87.70860591 190.84840643 90.375 193.75 C91.80867257 195.26411393 93.24485641 196.77585413 94.68359375 198.28515625 C95.39821777 199.03877441 96.1128418 199.79239258 96.84912109 200.56884766 C98.70998351 202.4566854 100.60911388 204.18869366 102.62890625 205.90234375 C109.56486098 211.83318658 115.82635509 218.52382781 122.23779297 225.00830078 C130.84921788 233.71859268 130.84921788 233.71859268 139.94335938 241.91601562 C144.98996166 246.39913832 149.63574678 251.33861094 154.37402344 256.14453125 C160.97373612 262.85798126 160.97373612 262.85798126 167.9375 269.1875 C173.74636608 274.15638748 179.01133215 279.70528217 184.37402344 285.14453125 C190.94084284 291.82866247 190.94084284 291.82866247 197.875 298.125 C204.11217487 303.4602616 209.75724034 309.45305179 215.51953125 315.29003906 C220.82064938 320.65363935 226.11855925 325.93335996 231.859375 330.83203125 C237.1251161 335.53358581 241.99031128 340.69347145 246.94677734 345.71728516 C252.15054795 350.98532072 257.3637257 356.15697026 262.99804688 360.97070312 C267.63485954 365.07519288 271.88713239 369.60214318 276.2265625 374.015625 C279.66278249 377.48726994 283.09950743 380.88641674 286.8125 384.0625 C292.65524041 389.08378582 297.96927519 394.6626248 303.37402344 400.14453125 C308.41868567 405.25461913 313.48993252 410.25201713 318.94921875 414.921875 C323.823294 419.25013043 328.3007917 424.01649462 332.87109375 428.66015625 C337.21934016 433.05068706 341.62508364 437.28249763 346.32617188 441.29492188 C347.57579746 442.37490132 348.76961309 443.51961309 349.9375 444.6875 C349.6875 447.25 349.6875 447.25 348.9375 449.6875 C345.7122589 451.30012055 342.18494646 450.87184466 338.640625 450.890625 C337.81423523 450.89632507 336.98784546 450.90202515 336.13641357 450.90789795 C334.38457521 450.91735351 332.63271902 450.92388413 330.88085938 450.92773438 C328.21191918 450.93741146 325.54375844 450.96841706 322.875 451 C321.17187957 451.00653304 319.46875363 451.01178233 317.765625 451.015625 C316.57468231 451.0341452 316.57468231 451.0341452 315.35968018 451.05303955 C308.16203847 451.02438667 303.79550137 448.89721023 298.65127563 443.71551514 C298.1604953 443.20611389 297.66971497 442.69671265 297.1640625 442.171875 C296.37290543 441.37079315 296.37290543 441.37079315 295.56576538 440.55352783 C293.89068525 438.85520462 292.22612391 437.14704031 290.5625 435.4375 C288.37106744 433.19929125 286.17523801 430.9654681 283.9765625 428.734375 C283.44677795 428.19590942 282.91699341 427.65744385 282.37115479 427.10266113 C278.96970222 423.66695547 275.45960517 420.43037714 271.77490234 417.29785156 C267.61046789 413.64802302 263.81283323 409.59946083 259.9375 405.6484375 C256.77939177 402.45332019 253.60573772 399.35430202 250.1875 396.4375 C243.89989108 391.0218056 238.18155088 384.98656635 232.35546875 379.08496094 C225.37451186 371.95944441 225.37451186 371.95944441 218 365.25 C211.34808399 359.57388159 205.3518219 353.15422482 199.20996094 346.93945312 C193.60875825 341.27774853 188.04901533 335.67307437 181.98046875 330.5078125 C176.72285894 325.82321179 171.87249463 320.66916877 166.92822266 315.65771484 C161.74473385 310.41021155 156.55168724 305.26165946 150.93945312 300.46679688 C145.83636668 295.93127321 141.14843719 290.93193624 136.359375 286.0703125 C132.72797287 282.40549256 129.12212092 278.77774202 125.1875 275.4375 C121.13532219 271.98755316 117.41956493 268.22565305 113.671875 264.453125 C113.02331543 263.80230957 112.37475586 263.15149414 111.70654297 262.48095703 C110.11571664 260.8842713 108.52607451 259.2864256 106.9375 257.6875 C106.93695523 258.70333003 106.93641047 259.71916006 106.93584919 260.76577282 C106.92146148 285.4694153 106.87847685 310.17288141 106.80540943 334.87642193 C106.77073854 346.8228275 106.74540115 358.76911743 106.74194336 370.71557617 C106.73890639 381.1266567 106.71845188 391.5375314 106.67697543 401.9485324 C106.65561956 407.46245762 106.64305818 412.97609002 106.65134621 418.49005699 C106.65886985 423.67843095 106.64313203 428.86621077 106.60943985 434.05447578 C106.60118625 435.96001306 106.60148047 437.8656092 106.61090279 439.77114105 C106.62248822 442.3712585 106.60346388 444.96941687 106.57673645 447.56938171 C106.58740971 448.32522527 106.59808297 449.08106882 106.60907966 449.85981673 C106.53477063 453.72863259 106.04739656 455.54299652 103.68021011 458.65562057 C100.88151137 460.72897801 99.81285334 461.31305776 96.41490173 461.31568909 C95.10065468 461.33467003 95.10065468 461.33467003 93.75985718 461.35403442 C92.81164093 461.34234222 91.86342468 461.33065002 90.88647461 461.31860352 C89.87779831 461.32575882 88.86912201 461.33291412 87.82987976 461.34028625 C84.49940556 461.35718001 81.17027596 461.33776701 77.83984375 461.31640625 C75.52486561 461.31723481 73.20988752 461.31969372 70.89491272 461.32371521 C66.04524002 461.32657361 61.19602906 461.31186603 56.34643555 461.28442383 C50.1262664 461.25032258 43.90692198 461.25636553 37.68671322 461.2750864 C32.90748708 461.28564758 28.12845332 461.27672679 23.34924507 461.26170158 C21.05549249 461.25651415 18.76171986 461.25700834 16.46796989 461.26324654 C13.26458291 461.26868863 10.06238267 461.24835533 6.85913086 461.22094727 C5.90889038 461.22747314 4.9586499 461.23399902 3.97961426 461.24072266 C2.66959694 461.22163597 2.66959694 461.22163597 1.33311462 461.2021637 C0.57636413 461.19935678 -0.18038637 461.19654985 -0.9600687 461.19365788 C-4.04678093 460.45053552 -5.1177849 459.18727226 -7.0625 456.6875 C-7.45297257 454.02312837 -7.59715585 451.77277803 -7.56027794 449.11060905 C-7.56549251 448.34007122 -7.57070708 447.56953338 -7.57607967 446.77564591 C-7.58873246 444.17821694 -7.57272288 441.58174546 -7.55697632 438.98434448 C-7.56015113 437.10965462 -7.56507696 435.23496704 -7.57160914 433.36028588 C-7.58447109 428.19675911 -7.57227325 423.03354459 -7.55608058 417.87003827 C-7.54295293 412.30627242 -7.55281772 406.74254223 -7.55984497 401.17877197 C-7.56994134 390.27517903 -7.55863055 379.37170716 -7.54014437 368.46812926 C-7.51940627 355.78178318 -7.51951594 343.09546349 -7.52048953 330.40910365 C-7.52152168 307.09722462 -7.50143146 283.78541286 -7.47148465 260.47355915 C-7.44422951 239.17848986 -7.43176232 217.88346549 -7.43310547 196.58837891 C-7.43318629 195.22078871 -7.43326701 193.85319852 -7.43334763 192.48560832 C-7.43338833 191.80950708 -7.43342903 191.13340583 -7.43347096 190.43681666 C-7.43367255 187.03363194 -7.43385371 183.63044722 -7.43401146 180.2272625 C-7.43404489 179.55591048 -7.43407831 178.88455846 -7.43411275 178.19286244 C-7.43499908 156.59984166 -7.42076463 135.00682865 -7.40528577 113.41381427 C-7.39924246 104.56109151 -7.3971254 95.70837263 -7.39622116 86.85564804 C-7.39485965 76.07553664 -7.38596877 65.29546097 -7.36755554 54.51536475 C-7.35829501 49.01040232 -7.35223756 43.50548573 -7.35474396 38.00051498 C-7.35692396 32.96861234 -7.3499595 27.93681132 -7.33544691 22.90492989 C-7.33180163 21.07730414 -7.33157759 19.24966797 -7.33498149 17.42204176 C-7.33907479 14.95214117 -7.33104978 12.48257958 -7.31976891 10.01270866 C-7.32387954 9.29073325 -7.32799018 8.56875784 -7.33222538 7.82490438 C-7.28183581 1.85207943 -5.92123778 0.37476189 0 0 Z " fill="#FBFBFC" transform="translate(309.0625,261.3125)"/>
<path d="M0 0 C0.33 0 0.66 0 1 0 C0.85764543 1.72945653 0.71095618 3.45855654 0.5625 5.1875 C0.48128906 6.15042969 0.40007813 7.11335937 0.31640625 8.10546875 C0.02333849 10.78649602 -0.42703754 13.3662986 -1 16 C-3 12.25 -3 12.25 -3 10 C-2.34 10 -1.68 10 -1 10 C-1.33 8.02 -1.66 6.04 -2 4 C-1.34 4 -0.68 4 0 4 C0 2.68 0 1.36 0 0 Z " fill="#696E7C" transform="translate(830,725)"/>
<path d="M0 0 C0.53625 0.226875 1.0725 0.45375 1.625 0.6875 C-1.04166667 2.02083333 -3.70833333 3.35416667 -6.375 4.6875 C-7.035 4.0275 -7.695 3.3675 -8.375 2.6875 C-2.95961538 -0.38942308 -2.95961538 -0.38942308 0 0 Z " fill="#4E5769" transform="translate(269.375,196.3125)"/>
</svg>
